<?xml version="1.0" standalone="no"?>
<!DOCTYPE svg PUBLIC "-//W3C//DTD SVG 20010904//EN"
 "http://www.w3.org/TR/2001/REC-SVG-20010904/DTD/svg10.dtd">
<svg version="1.0" xmlns="http://www.w3.org/2000/svg"
 width="250.000000pt" height="250.000000pt" viewBox="0 0 250.000000 250.000000"
 preserveAspectRatio="xMidYMid meet">
<metadata>
Created by potrace 1.14, written by Peter Selinger 2001-2017
</metadata>
<g transform="translate(0.000000,250.000000) scale(0.100000,-0.100000)"
fill="#000000" stroke="none">
<path d="M0 1250 l0 -1250 1250 0 1250 0 0 1250 0 1250 -1250 0 -1250 0 0
-1250z m1525 681 c181 -332 256 -477 249 -487 -9 -12 -491 -425 -512 -438 -6
-4 -130 95 -276 219 l-265 226 62 117 c444 838 462 870 473 853 6 -9 127 -229
269 -490z m-145 -1001 c215 -15 429 -73 609 -165 132 -67 192 -108 182 -124
-7 -11 -18 -7 -52 16 -73 51 -240 130 -350 166 -423 142 -843 104 -1279 -115
-155 -78 -225 -93 -111 -24 216 132 509 226 764 245 56 5 104 9 107 9 3 1 61
-3 130 -8z m-110 -510 c0 -109 -2 -130 -15 -130 -13 0 -15 21 -15 130 0 109 2
130 15 130 13 0 15 -21 15 -130z m80 0 c0 -109 -2 -130 -15 -130 -13 0 -15 21
-15 130 0 109 2 130 15 130 13 0 15 -21 15 -130z m790 0 c0 -109 -2 -130 -15
-130 -13 0 -15 21 -15 130 0 109 2 130 15 130 13 0 15 -21 15 -130z m90 0 c0
-109 -2 -130 -15 -130 -13 0 -15 21 -15 130 0 109 2 130 15 130 13 0 15 -21
15 -130z m-1869 19 l32 -100 33 98 c19 54 34 99 34 101 0 1 9 2 19 2 17 0 20
-9 25 -62 12 -140 12 -188 0 -188 -14 0 -24 54 -24 145 l-1 70 -37 -105 c-24
-67 -43 -105 -52 -105 -10 0 -25 35 -46 105 l-31 104 -8 -107 c-5 -83 -10
-107 -21 -107 -12 0 -13 15 -9 83 11 149 14 167 35 167 16 0 25 -20 51 -101z
m1304 14 c10 -49 21 -94 25 -101 3 -7 17 32 30 88 19 79 27 100 41 100 14 0
22 -21 41 -102 l24 -103 24 99 c21 84 39 120 55 105 4 -5 -61 -238 -69 -246
-17 -17 -34 15 -51 96 -10 50 -23 91 -27 91 -4 0 -8 -7 -8 -16 0 -9 -10 -52
-22 -95 -32 -117 -46 -109 -84 46 -28 113 -30 125 -14 125 13 0 21 -19 35 -87z
m-685 42 c0 -20 5 -25 25 -25 31 0 33 -17 3 -22 -20 -3 -23 -10 -26 -56 -3
-52 11 -88 29 -76 5 3 9 -2 9 -10 0 -21 -34 -21 -54 0 -11 11 -16 35 -16 80 0
50 -3 64 -15 64 -8 0 -15 5 -15 10 0 6 7 10 15 10 8 0 15 8 15 18 0 10 3 22 7
25 13 14 23 6 23 -18z m-295 -50 c14 -13 25 -36 25 -50 0 -24 -2 -25 -65 -25
-68 0 -74 -4 -51 -36 11 -14 26 -19 60 -18 50 1 62 -12 21 -22 -39 -10 -93 4
-110 29 -25 36 -19 84 14 118 36 36 73 37 106 4z m85 9 c0 -14 2 -14 22 0 30
21 54 20 78 -4 16 -16 20 -33 20 -90 0 -56 -3 -70 -15 -70 -12 0 -15 13 -15
59 0 74 -6 91 -34 91 -36 0 -46 -20 -46 -87 0 -49 -3 -63 -15 -63 -12 0 -15
17 -15 90 0 53 4 90 10 90 6 0 10 -7 10 -16z m400 -4 c16 -16 20 -33 20 -90 0
-64 -9 -86 -25 -60 -4 6 -15 5 -30 -2 -35 -16 -73 -3 -81 28 -9 34 19 63 68
70 22 4 38 12 38 20 0 20 -36 35 -65 28 -14 -4 -25 -2 -25 4 0 27 74 28 100 2z
m273 -42 c12 -32 24 -58 27 -58 4 0 15 27 25 60 13 44 23 60 36 60 17 0 16 -5
-7 -66 -13 -37 -31 -82 -39 -100 -22 -54 -85 -108 -85 -73 0 6 11 20 25 31 32
25 31 31 -5 123 -35 88 -35 87 -14 83 10 -2 25 -26 37 -60z m602 37 c14 -13
25 -36 25 -50 0 -24 -2 -25 -65 -25 -68 0 -74 -4 -51 -36 11 -14 26 -19 60
-18 50 1 62 -12 21 -22 -39 -10 -93 4 -110 29 -25 36 -19 84 14 118 36 36 73
37 106 4z"/>
<path d="M1007 1927 c-130 -246 -237 -451 -237 -457 0 -5 4 -10 8 -10 4 0 112
-22 240 -49 l231 -49 243 50 c134 28 245 52 247 54 4 3 -461 859 -483 890 -11
14 -48 -51 -249 -429z"/>
<path d="M1480 1380 l-225 -48 -213 44 c-117 25 -217 44 -222 42 -6 -2 90 -88
211 -191 193 -165 223 -187 237 -175 74 58 449 379 442 377 -3 0 -106 -23
-230 -49z"/>
<path d="M600 430 c-31 -31 -24 -40 30 -40 54 0 65 14 34 44 -21 21 -40 20
-64 -4z"/>
<path d="M1103 370 c-27 -11 -30 -32 -8 -50 24 -20 65 3 65 35 0 27 -16 31
-57 15z"/>
<path d="M1960 430 c-31 -31 -24 -40 30 -40 54 0 65 14 34 44 -21 21 -40 20
-64 -4z"/>
</g>
</svg>
